<svg width="171" height="110" viewBox="0 0 171 110" fill="none" xmlns="http://www.w3.org/2000/svg">
<path d="M109.645 51.6883L114.941 49" stroke="black" stroke-width="3"/>
<path d="M18.0739 54.8586H2V68.2964M19.4133 84.5767H2V68.2964M2 68.2964H17.0692M44.5287 54.8586H26.4456V68.2964M26.4456 84.5767V69.7177V68.2964M26.4456 68.2964H43.1892M41.8498 84.5767L57.2539 54.8586L75.0021 84.5767M50.8913 68.2964H82.7041M114.517 68.2964H82.7041M91.0759 84.5767L107.15 54.8586L123.558 84.5767M82.7041 68.2964V109.039" stroke="white" stroke-width="3"/>
<path d="M89.533 91.9H91.639C92.3497 91.9 92.8827 92.0907 93.238 92.472C93.5933 92.8533 93.771 93.4123 93.771 94.149V95.046C93.771 95.7827 93.5933 96.3417 93.238 96.723C92.8827 97.1043 92.3497 97.295 91.639 97.295H90.963V101H89.533V91.9ZM91.639 95.995C91.873 95.995 92.0463 95.93 92.159 95.8C92.2803 95.67 92.341 95.449 92.341 95.137V94.058C92.341 93.746 92.2803 93.525 92.159 93.395C92.0463 93.265 91.873 93.2 91.639 93.2H90.963V95.995H91.639ZM94.5476 91.9H95.9776V99.7H98.3306V101H94.5476V91.9ZM100.172 91.9H102.109L103.591 101H102.161L101.901 99.193V99.219H100.276L100.016 101H98.6902L100.172 91.9ZM101.732 97.984L101.095 93.486H101.069L100.445 97.984H101.732ZM104.285 91.9H106.079L107.47 97.347H107.496V91.9H108.77V101H107.301L105.585 94.357H105.559V101H104.285V91.9ZM109.833 91.9H113.733V93.2H111.263V95.605H113.226V96.905H111.263V99.7H113.733V101H109.833V91.9ZM114.893 101.052C114.633 101.052 114.412 101.035 114.23 101V99.7C114.369 99.7347 114.525 99.752 114.698 99.752C114.984 99.752 115.197 99.6827 115.335 99.544C115.474 99.3967 115.543 99.1757 115.543 98.881V91.9H116.973V98.842C116.973 99.5873 116.8 100.142 116.453 100.506C116.115 100.87 115.595 101.052 114.893 101.052ZM119.101 91.9H121.038L122.52 101H121.09L120.83 99.193V99.219H119.205L118.945 101H117.619L119.101 91.9ZM120.661 97.984L120.024 93.486H119.998L119.374 97.984H120.661ZM123.214 91.9H125.398C126.108 91.9 126.641 92.0907 126.997 92.472C127.352 92.8533 127.53 93.4123 127.53 94.149V98.751C127.53 99.4877 127.352 100.047 126.997 100.428C126.641 100.809 126.108 101 125.398 101H123.214V91.9ZM125.372 99.7C125.606 99.7 125.783 99.6307 125.905 99.492C126.035 99.3533 126.1 99.128 126.1 98.816V94.084C126.1 93.772 126.035 93.5467 125.905 93.408C125.783 93.2693 125.606 93.2 125.372 93.2H124.644V99.7H125.372ZM130.562 101.13C129.86 101.13 129.323 100.931 128.95 100.532C128.577 100.133 128.391 99.57 128.391 98.842V94.058C128.391 93.33 128.577 92.7667 128.95 92.368C129.323 91.9693 129.86 91.77 130.562 91.77C131.264 91.77 131.801 91.9693 132.174 92.368C132.547 92.7667 132.733 93.33 132.733 94.058V98.842C132.733 99.57 132.547 100.133 132.174 100.532C131.801 100.931 131.264 101.13 130.562 101.13ZM130.562 99.83C131.056 99.83 131.303 99.531 131.303 98.933V93.967C131.303 93.369 131.056 93.07 130.562 93.07C130.068 93.07 129.821 93.369 129.821 93.967V98.933C129.821 99.531 130.068 99.83 130.562 99.83ZM135.559 101.13C134.866 101.13 134.341 100.935 133.986 100.545C133.631 100.146 133.453 99.5787 133.453 98.842V98.322H134.805V98.946C134.805 99.5353 135.052 99.83 135.546 99.83C135.789 99.83 135.971 99.7607 136.092 99.622C136.222 99.4747 136.287 99.2407 136.287 98.92C136.287 98.5387 136.2 98.205 136.027 97.919C135.854 97.6243 135.533 97.2733 135.065 96.866C134.476 96.346 134.064 95.878 133.83 95.462C133.596 95.0373 133.479 94.5607 133.479 94.032C133.479 93.3127 133.661 92.758 134.025 92.368C134.389 91.9693 134.918 91.77 135.611 91.77C136.296 91.77 136.811 91.9693 137.158 92.368C137.513 92.758 137.691 93.3213 137.691 94.058V94.435H136.339V93.967C136.339 93.655 136.278 93.4297 136.157 93.291C136.036 93.1437 135.858 93.07 135.624 93.07C135.147 93.07 134.909 93.3603 134.909 93.941C134.909 94.2703 134.996 94.578 135.169 94.864C135.351 95.15 135.676 95.4967 136.144 95.904C136.742 96.424 137.154 96.8963 137.379 97.321C137.604 97.7457 137.717 98.244 137.717 98.816C137.717 99.5613 137.531 100.133 137.158 100.532C136.794 100.931 136.261 101.13 135.559 101.13Z" fill="#EBC644"/>
<path d="M2.533 35.9H4.574L5.484 42.413H5.51L6.42 35.9H8.461V45H7.109V38.11H7.083L6.043 45H4.847L3.807 38.11H3.781V45H2.533V35.9ZM10.6331 35.9H12.5701L14.0521 45H12.6221L12.3621 43.193V43.219H10.7371L10.4771 45H9.15112L10.6331 35.9ZM12.1931 41.984L11.5561 37.486H11.5301L10.9061 41.984H12.1931ZM14.7459 35.9H16.8649C17.6016 35.9 18.1389 36.0733 18.4769 36.42C18.8149 36.758 18.9839 37.2823 18.9839 37.993V38.552C18.9839 39.4967 18.6719 40.0947 18.0479 40.346V40.372C18.3946 40.476 18.6372 40.6883 18.7759 41.009C18.9232 41.3297 18.9969 41.7587 18.9969 42.296V43.895C18.9969 44.155 19.0056 44.3673 19.0229 44.532C19.0402 44.688 19.0836 44.844 19.1529 45H17.6969C17.6449 44.8527 17.6102 44.714 17.5929 44.584C17.5756 44.454 17.5669 44.22 17.5669 43.882V42.218C17.5669 41.802 17.4976 41.5117 17.3589 41.347C17.2289 41.1823 16.9992 41.1 16.6699 41.1H16.1759V45H14.7459V35.9ZM16.6959 39.8C16.9819 39.8 17.1942 39.7263 17.3329 39.579C17.4802 39.4317 17.5539 39.1847 17.5539 38.838V38.136C17.5539 37.8067 17.4932 37.5683 17.3719 37.421C17.2592 37.2737 17.0772 37.2 16.8259 37.2H16.1759V39.8H16.6959ZM22.0041 45.13C21.3194 45.13 20.7951 44.935 20.4311 44.545C20.0757 44.155 19.8981 43.6047 19.8981 42.894V38.006C19.8981 37.2953 20.0757 36.745 20.4311 36.355C20.7951 35.965 21.3194 35.77 22.0041 35.77C22.6887 35.77 23.2087 35.965 23.5641 36.355C23.9281 36.745 24.1101 37.2953 24.1101 38.006V38.968H22.7581V37.915C22.7581 37.3517 22.5197 37.07 22.0431 37.07C21.5664 37.07 21.3281 37.3517 21.3281 37.915V42.998C21.3281 43.5527 21.5664 43.83 22.0431 43.83C22.5197 43.83 22.7581 43.5527 22.7581 42.998V41.607H24.1101V42.894C24.1101 43.6047 23.9281 44.155 23.5641 44.545C23.2087 44.935 22.6887 45.13 22.0041 45.13ZM24.9656 35.9H28.8656V37.2H26.3956V39.605H28.3586V40.905H26.3956V43.7H28.8656V45H24.9656V35.9ZM29.6883 35.9H31.4823L32.8733 41.347H32.8993V35.9H34.1733V45H32.7043L30.9883 38.357H30.9623V45H29.6883V35.9ZM36.3411 35.9H38.2781L39.7601 45H38.3301L38.0701 43.193V43.219H36.4451L36.1851 45H34.8591L36.3411 35.9ZM37.9011 41.984L37.2641 37.486H37.2381L36.6141 41.984H37.9011ZM40.4539 35.9H42.5729C43.3096 35.9 43.8469 36.0733 44.1849 36.42C44.5229 36.758 44.6919 37.2823 44.6919 37.993V38.552C44.6919 39.4967 44.3799 40.0947 43.7559 40.346V40.372C44.1026 40.476 44.3452 40.6883 44.4839 41.009C44.6312 41.3297 44.7049 41.7587 44.7049 42.296V43.895C44.7049 44.155 44.7136 44.3673 44.7309 44.532C44.7482 44.688 44.7916 44.844 44.8609 45H43.4049C43.3529 44.8527 43.3182 44.714 43.3009 44.584C43.2836 44.454 43.2749 44.22 43.2749 43.882V42.218C43.2749 41.802 43.2056 41.5117 43.0669 41.347C42.9369 41.1823 42.7072 41.1 42.3779 41.1H41.8839V45H40.4539V35.9ZM42.4039 39.8C42.6899 39.8 42.9022 39.7263 43.0409 39.579C43.1882 39.4317 43.2619 39.1847 43.2619 38.838V38.136C43.2619 37.8067 43.2012 37.5683 43.0799 37.421C42.9672 37.2737 42.7852 37.2 42.5339 37.2H41.8839V39.8H42.4039ZM45.6971 35.9H47.1271V45H45.6971V35.9ZM49.303 35.9H51.24L52.722 45H51.292L51.032 43.193V43.219H49.407L49.147 45H47.821L49.303 35.9ZM50.863 41.984L50.226 37.486H50.2L49.576 41.984H50.863Z" fill="#FFFEFE"/>
<path d="M77 55V1L93 7.48927V47.5837L77 55Z" fill="#8C0003" stroke="#8B0003"/>
</svg>
